<svg width="64" height="64" viewBox="0 0 64 64" fill="none" xmlns="http://www.w3.org/2000/svg">
<g clip-path="url(#clip0_91_4)">
<rect width="64" height="64" rx="13" fill="black"/>
<path fill-rule="evenodd" clip-rule="evenodd" d="M51.2 3.2H12.8C7.49807 3.2 3.2 7.49807 3.2 12.8V51.2C3.2 56.5019 7.49807 60.8 12.8 60.8H51.2C56.5019 60.8 60.8 56.5019 60.8 51.2V12.8C60.8 7.49807 56.5019 3.2 51.2 3.2ZM12.8 0C5.73076 0 0 5.73075 0 12.8V51.2C0 58.2692 5.73075 64 12.8 64H51.2C58.2692 64 64 58.2692 64 51.2V12.8C64 5.73076 58.2692 0 51.2 0H12.8Z" fill="#C2D24B"/>
<path d="M23.816 10.4691C21.2101 10.9682 19.1119 12.5927 17.9443 15.0293C17.5044 15.96 17.2759 16.8822 17.2167 18.0159L17.1659 18.9551L16.4383 19.1412C14.6193 19.5896 12.8172 20.8333 11.785 22.3562C11.2943 23.0838 10.7951 24.1414 10.5751 24.9452C10.3128 25.9181 10.3128 27.9487 10.5751 28.9047C10.7951 29.7085 11.2943 30.7999 11.7681 31.4937L12.1234 32.0098L11.7765 32.5174C11.2858 33.2366 10.7951 34.2941 10.5751 35.0979C10.3128 36.0709 10.3128 38.1014 10.5751 39.0744C11.3535 41.9256 13.6379 44.193 16.4383 44.8783L17.1659 45.0645L17.2167 46.0036C17.3775 49.0579 19.1034 51.613 21.8954 52.9244C23.0884 53.4828 23.7229 53.6097 25.2289 53.6097C26.3034 53.6097 26.6587 53.5758 27.2171 53.432C28.0717 53.2036 29.4169 52.5352 30.1614 51.9768L30.7283 51.5368V32.0098V12.4827L30.1614 12.0427C29.4084 11.4759 28.0632 10.816 27.2171 10.596C26.3457 10.3675 24.662 10.3083 23.816 10.4691Z" fill="#C2D24B"/>
<path d="M37.3528 10.469C35.9737 10.7313 34.6962 11.3405 33.5879 12.2458L33.2664 12.508V17.3898V22.28H34.6454H36.0161L36.2276 21.8316C36.4983 21.2563 37.3274 20.4356 37.9366 20.1395C40.2294 19.0396 42.9199 20.4356 43.3514 22.9484C43.6983 24.979 42.2854 26.9334 40.2125 27.2887C38.6558 27.551 37.0144 26.7557 36.3037 25.3681L36.0161 24.8182H34.6454H33.2664V27.7794V30.7406H36.3376H39.4003L39.6118 30.2922C39.8825 29.7169 40.7117 28.8962 41.3208 28.6001C43.1906 27.7033 45.4412 28.4563 46.3718 30.3007C47.5309 32.5935 46.1349 35.3094 43.5883 35.7493C42.04 36.0116 40.3986 35.2078 39.688 33.8287L39.4003 33.2788H36.3376H33.2664V36.24V39.2012H34.6454H36.0161L36.2276 38.7528C36.4983 38.1775 37.3274 37.3568 37.9366 37.0607C40.2294 35.9608 42.9199 37.3568 43.3514 39.8696C43.6983 41.9002 42.2854 43.8546 40.2125 44.2099C38.6558 44.4722 37.0144 43.6769 36.3037 42.2893L36.0161 41.7394H34.6454H33.2664V46.6212V51.5114L33.5879 51.7737C34.4847 52.5098 35.6861 53.1358 36.7775 53.4235C37.7843 53.7027 39.7049 53.7027 40.7117 53.432C43.1399 52.772 45.0012 51.2153 46.0503 48.9817C46.4987 48.0256 46.7187 47.1119 46.7779 46.0036L46.8287 45.0644L47.5563 44.8783C50.3568 44.193 52.6411 41.9255 53.411 39.0743C53.6902 38.0675 53.6902 36.147 53.4195 35.1401C53.1826 34.2772 52.7088 33.2365 52.2266 32.5258L51.8712 32.0097L52.2266 31.4936C52.7088 30.7829 53.1826 29.7423 53.4195 28.8793C53.6902 27.8725 53.6902 25.9519 53.411 24.9451C52.6411 22.0939 50.3568 19.8265 47.5563 19.1411L46.8287 18.955L46.7779 18.0159C46.6679 15.9853 45.8642 14.1578 44.4428 12.7195C43.4783 11.7466 42.0908 10.9513 40.754 10.5959C39.8825 10.3675 38.2073 10.3083 37.3528 10.469Z" fill="#C2D24B"/>
<path d="M39.0027 22.4577C38.6389 22.6438 38.3428 23.143 38.3428 23.5491C38.3428 23.9721 38.6389 24.4544 39.0196 24.649C39.1973 24.742 39.468 24.8182 39.6119 24.8182C39.7557 24.8182 40.0264 24.742 40.2041 24.649C40.5848 24.4544 40.881 23.9721 40.881 23.5491C40.881 23.1261 40.5848 22.6438 40.2041 22.4492C39.7895 22.2377 39.4088 22.2377 39.0027 22.4577Z" fill="#C2D24B"/>
<path d="M42.387 30.9183C42.0232 31.1044 41.7271 31.6036 41.7271 32.0097C41.7271 32.4327 42.0232 32.915 42.4039 33.1096C42.5816 33.2027 42.8523 33.2788 42.9961 33.2788C43.4192 33.2788 43.9014 32.9827 44.096 32.602C44.1891 32.4243 44.2652 32.1535 44.2652 32.0097C44.2652 31.5867 43.9691 31.1044 43.5884 30.9098C43.1738 30.6983 42.7931 30.6983 42.387 30.9183Z" fill="#C2D24B"/>
<path d="M39.0027 39.3789C38.6389 39.5651 38.3428 40.0642 38.3428 40.4704C38.3428 40.6142 38.4189 40.8849 38.512 41.0626C38.7066 41.4433 39.1888 41.7394 39.6119 41.7394C40.2549 41.7394 40.881 41.1134 40.881 40.4704C40.881 40.0473 40.5848 39.5651 40.2041 39.3705C39.7895 39.159 39.4088 39.159 39.0027 39.3789Z" fill="#C2D24B"/>
</g>
<defs>
<clipPath id="clip0_91_4">
<rect width="64" height="64" fill="white"/>
</clipPath>
</defs>
</svg>
