<svg id="logo" xmlns="http://www.w3.org/2000/svg" width="85" height="59.523" viewBox="0 0 85 59.523">
  <g fill="#111111">
    <path d="M780.384,559.423c-.241-.678-2.114-6.021-3.1-8.8.021.043-.268-1.131-1.031-1.145-.232-.043-1.694-.031-1.694-.031s-.826-.124-1.3,1.2c-1,2.773-2.89,8.081-3.136,8.76-.315-1-3.2-10.153-3.2-10.153H763.97l4.607,14.394h2.757s3.556-9.455,3.9-10.359l3.747,10.359h2.885l4.751-14.394H783.7l-3.32,10.169" transform="translate(-763.97 -517.486)" />
    <path d="M877.628,560.39v-2.715H885.8v-2.518h-8.167v-2.439a.789.789,0,0,1,.859-.784l9.5,0c1.027,0,1.17-2.515,1.17-2.515H877.921a2.845,2.845,0,0,0-3.189,2.89v8.5a3.047,3.047,0,0,0,3.254,2.977h11.251s.1-2.456-1.222-2.518c-2.411,0-7.7.008-9.528.008a.789.789,0,0,1-.859-.89" transform="translate(-850.719 -517.618)" />
    <path d="M1082.355,550.647a2.359,2.359,0,0,0-2.073-1.424h-2.309a2.384,2.384,0,0,0-2.074,1.425l-6.124,12.977h3.316l1.285-2.761,9.5,0,1.284,2.762h3.311Zm-7.1,8.036s1.979-4.46,2.969-6.354a1.055,1.055,0,0,1,.895-.648.951.951,0,0,1,.906.64c1,1.886,2.98,6.36,2.98,6.36Z" transform="translate(-1003.476 -517.462)" />
    <path d="M952.642,560.374c0-2.676,0-11.082,0-11.082h-2.8v11.469a2.7,2.7,0,0,0,2.784,2.925h9.45s.136-2.493-1.2-2.493h-7.4a.814.814,0,0,1-.833-.818" transform="translate(-909.543 -517.516)" />
    <path d="M1015.245,560.358V549.273h-2.8v11.472a2.7,2.7,0,0,0,2.786,2.923h8.048s.519-1,1.193-2.491h-8.39a.822.822,0,0,1-.838-.819" transform="translate(-958.574 -517.501)" />
    <path d="M936.243,472.725c-4.036-.423-9.93,2.543-11.28,3.1a30.29,30.29,0,0,1-8.516,2.632c-8.039.892-12.172-4.448-14.792-6.676a12.406,12.406,0,0,0-3.153-2.195,4.389,4.389,0,0,0-1.988-.415c-.215.019-.775.086-.783.362s.634.165,1.526.836a19.358,19.358,0,0,1,2.35,2.043c1.052,1.1,2.3,2.489,3.385,3.56,5.362,5.306,8.677,5.407,10.137,5.55,6.848.674,12.174-2.588,17.03-4.632,5.586-2.353,8.738-1.791,10.345,1,.244.424.584.21.5-.523a5.082,5.082,0,0,0-4.759-4.64" transform="translate(-867.165 -454.761)" />
    <path d="M820.315,428.11a5.765,5.765,0,0,0-3.611-1.731,20.972,20.972,0,0,0-4.547-.081,9.4,9.4,0,0,1-2.132.063c-.8-.15-.785-.929-.556-1.558.11-.3.393-.628.405-.949a.749.749,0,0,0-.141-.442,1.049,1.049,0,0,0-.177-.205c-.125-.115-.154-.112-.1-.285a1.235,1.235,0,0,1,.255-.481c.12-.135.322-.161.357-.362.039-.226-.135-.316-.3-.389-.2-.088-.715-.521-.468-.745a1.528,1.528,0,0,0,.516-1.075,1,1,0,0,0-.419-.862,1.7,1.7,0,0,1-.819-.979c-.035-.2.64-.56.805-.675a15.4,15.4,0,0,0,3.069-2.7,8.95,8.95,0,0,0,.509-2.595c.439-2.125,2.821-3.423,3.045-3.591a4.069,4.069,0,0,0,.72-.877,6.061,6.061,0,0,1,5.118-2.006c2.92.069,5.4,1.918,7.686,3.552,2.518,1.8,5.039,3.606,7.675,5.243,7.407,4.6,11.943,1.866,17.414-.551,6.661-2.944,8.574-2.168,10.363-.181.321.356.479-.062.257-.832a5.07,5.07,0,0,0-5.313-3.41c-3.085.1-7.959,2.518-8.008,2.541-2.8,1.268-6.238,3.5-12.937,0a57.968,57.968,0,0,1-6.67-4.456,30.056,30.056,0,0,0-6.956-4.088,9.713,9.713,0,0,0-7.61.188,5.3,5.3,0,0,0-2.775,2.811,2.4,2.4,0,0,1-.229.606.84.84,0,0,1-.16.169A9.723,9.723,0,0,0,812.5,408.7a7.229,7.229,0,0,0-1.635,3.535c-.092.408-.171.82-.24,1.235a1.841,1.841,0,0,1-.571,1.117,32.506,32.506,0,0,1-3.19,2.317,2.128,2.128,0,0,0-.618.464c-.365.586.153,1.332.548,1.722.225.22.6.423.631.76a.947.947,0,0,1-.344.733c-.095.1-.286.189-.307.336a1.418,1.418,0,0,0,.01.5,1.4,1.4,0,0,0,.685.83c-.5.219-1.346,1.1-.688,1.613.39.3.359.54.247.975a5.911,5.911,0,0,0-.206,1.326,1.869,1.869,0,0,0,.928,1.816,5.054,5.054,0,0,0,2.47.265c3.121-.138,6.646-.958,9.3,1.222a9.56,9.56,0,0,1,1.913,2.7c.128.189.439.163.407-.128a7.14,7.14,0,0,0-1.523-3.933" transform="translate(-796.985 -402.725)" />
    <path d="M887.7,445.2c3.837,1.974,7.751,3.757,18.2-1.114v0a.35.35,0,0,1,.054-.029c6.778-3.158,10.338-3.727,12.623-.331.17.248.523.158.349-.717a4.941,4.941,0,0,0-4.835-4.2c-3.058-.278-7.716,1.889-7.716,1.889-8.164,3.716-10,3.627-13.083,3.135-5.086-.814-11.092-6.044-13.058-7.652s-4.332-3.263-7.016-2.936a4.586,4.586,0,0,0-1.772.574c-.2.119-1.021.593-.891.888.092.213.412.147.582.113.344-.059.691-.12,1.039-.157,1.507-.163,3.668.286,6.25,2.567,3.2,2.819,6.109,6.339,9.278,7.969" transform="translate(-847.437 -426.594)" />
    <path d="M847.084,638.056h.255l4.626-5.631H850.8l-3.674,4.425h.2l-3.674-4.425h-1.193Zm-.322,3.754h1.032v-4.693h-1.032Zm-16.107,0h.979v-6.986l-.041-1.019.054-.014.63.724,6.932,7.294h.684v-9.386h-.925v6.758l.027,1.006-.027.026-.67-.724-6.637-7.066h-1.006Zm-11.253-3.3,2.32-4.438.443-.912h.027l.416.912,2.266,4.438Zm-10.636-1.1v-4.076H812c1.837,0,2.789.617,2.789,2.052s-.965,2.024-2.789,2.024Zm-1.032,4.4h1.032v-3.5H812c2.695,0,3.862-1.193,3.862-2.923,0-1.837-1.153-2.963-3.862-2.963h-4.264Zm-15.141,0h.979v-8.072l-.228.067,4.612,6.932h.335l4.613-6.932-.228-.067v8.072h.979v-9.386h-1.006l-4.626,6.945h.2l-4.626-6.945h-1.005Zm-8.477-.818c-2.9,0-4.036-1.247-4.036-3.888s1.14-3.875,4.036-3.875c2.869,0,3.982,1.234,3.982,3.875s-1.126,3.888-3.982,3.888m0,1.019c3.687,0,5.068-1.81,5.068-4.908s-1.381-4.854-5.068-4.854c-3.714,0-5.122,1.743-5.122,4.854s1.408,4.908,5.122,4.908m-11.065,0a6.543,6.543,0,0,0,3.432-.765l-.442-.9a6.219,6.219,0,0,1-2.99.657c-2.99,0-4.17-1.247-4.17-3.9,0-2.628,1.18-3.848,4.17-3.848a6.056,6.056,0,0,1,2.99.671l.442-.912a6.544,6.544,0,0,0-3.432-.764c-3.808,0-5.256,1.743-5.256,4.854s1.448,4.908,5.256,4.908m43.536-.215h1.126l1.234-2.36h6.409l1.193,2.36h1.193l-5-9.372h-1.18Z" transform="translate(-766.965 -582.489)" />
  </g>
</svg>
